<svg width="18" height="18" viewBox="0 0 18 18" fill="none" xmlns="http://www.w3.org/2000/svg">
<path fill-rule="evenodd" clip-rule="evenodd" d="M4.5 0.233521C2.01471 0.233521 0 2.21894 0 4.66809V13.5372C0 15.9864 2.01471 17.9718 4.5 17.9718H13.5C15.9853 17.9718 18 15.9864 18 13.5372V4.66809C18 2.21894 15.9853 0.233521 13.5 0.233521H4.5ZM13.5036 6.84549C13.8362 6.43567 13.7688 5.83769 13.3529 5.50984C12.9371 5.18198 12.3303 5.24842 11.9976 5.65824L7.43859 11.2741L5.61486 9.92622C5.18881 9.61133 4.58439 9.69643 4.26486 10.1163C3.94533 10.5361 4.03167 11.1318 4.45771 11.4466L7.02914 13.3472C7.44582 13.6552 8.03534 13.5813 8.3607 13.1806L13.5036 6.84549Z" fill="#383084"/>
</svg>
