<svg width="67" height="67" viewBox="0 0 67 67" fill="none" xmlns="http://www.w3.org/2000/svg">
<path fill-rule="evenodd" clip-rule="evenodd" d="M67 66.9529C66.2847 64.151 63.6619 53.177 60.8007 51.3091C59.3701 50.3752 58.1779 49.6747 56.7473 48.9742C58.4164 55.045 58.4164 60.8822 57.4626 66.9529H67ZM10.2527 48.9742C8.82206 49.6747 7.62989 50.3752 6.43772 51.3091C3.33808 53.177 0.715302 64.151 -5.66244e-07 66.9529H9.7758C8.58363 61.1157 8.82206 54.8115 10.2527 48.9742Z" fill="white"/>
<path fill-rule="evenodd" clip-rule="evenodd" d="M53.6477 47.5733C51.9786 47.1063 50.3096 46.4059 48.4021 45.9389C47.9253 50.3752 46.4946 53.8775 43.6334 57.6133C36.4804 59.9482 30.758 59.9482 23.3665 57.6133C20.7438 53.8775 19.0747 50.3752 18.5979 45.9389C16.9288 46.4059 15.0213 47.1063 13.3523 47.5733C11.4448 53.8775 11.2064 60.6487 12.3986 66.9529H54.6014C55.7936 60.6487 55.5551 53.8775 53.6477 47.5733Z" fill="white"/>
<path fill-rule="evenodd" clip-rule="evenodd" d="M45.7794 45.4719C37.911 43.8375 29.089 43.8375 21.2206 45.4719C21.6975 49.2077 23.1281 52.7101 25.0356 55.2784C30.758 57.1464 36.4804 57.1464 41.9644 55.2784C44.1103 52.7101 45.3025 49.2077 45.7794 45.4719Z" fill="white"/>
<path fill-rule="evenodd" clip-rule="evenodd" d="M49.5943 22.8235C49.5943 25.3919 48.879 27.9603 47.4484 28.4273C42.2028 46.8729 24.7971 46.8729 19.5516 28.4273C18.121 27.9603 17.4057 25.3919 17.4057 22.8235H49.5943ZM44.8256 26.0924C39.8185 42.9036 27.4199 44.3045 22.4128 26.0924H22.1744H44.8256Z" fill="white"/>
<path fill-rule="evenodd" clip-rule="evenodd" d="M48.879 16.5193C48.6406 9.74816 45.0641 5.31187 40.5338 2.97698L39.1032 11.6161C38.8648 13.017 36.7189 12.7835 36.9573 11.3826L38.3879 2.27652C38.3879 -0.758839 28.6121 -0.758839 28.6121 2.27652L30.2812 11.3826C30.5196 12.7835 28.3737 13.017 28.1352 11.6161L26.4662 3.21047C21.936 5.31187 18.5979 9.74816 18.3594 16.5193C15.4982 16.9863 15.4982 21.4226 18.8363 21.4226H48.4021C51.5018 21.4226 51.7402 16.9863 48.879 16.5193Z" fill="white"/>
</svg>
