<svg width="68" height="69" viewBox="0 0 68 69" fill="currentColor" xmlns="http://www.w3.org/2000/svg">
<path d="M53.459 28.6641C53.459 17.7452 44.444 8.86127 33.364 8.86127C22.284 8.86127 13.269 17.7452 13.269 28.6641C13.269 39.583 22.284 48.4669 33.364 48.4669C44.444 48.4669 53.459 39.583 53.459 28.6641ZM33.365 45.5105C23.938 45.5105 16.27 37.953 16.27 28.6641C16.27 19.3751 23.938 11.8176 33.365 11.8176C42.791 11.8176 50.46 19.3751 50.46 28.6641C50.46 37.953 42.79 45.5105 33.365 45.5105Z" fill="currentColor"/>
<path d="M38.666 21.1864L33.218 12.9824L27.93 21.3549L18.329 23.925L24.775 31.4667L24.289 41.2602L33.56 37.549L42.861 41.0306L42.145 31.1957L48.379 23.5544L38.666 21.1864ZM39.532 36.6236L35.0539 28.5939L33.56 28.0856L35.8923 25.5628H23.65L41 39.4184L33.28 18.4764L31 30.2487L43.095 25.3115L27.514 23.5544L39.532 36.6236Z" fill="currentColor"/>
<path d="M56.297 43.2686L59.926 40.663L59.567 33.8988L62.738 28.0708L59.436 22.1295L59.728 15.523L54.137 11.5821L51.491 5.50379L44.72 4.34391L39.659 0L33.047 1.84971L26.575 0.0995322L21.432 4.59421L14.83 5.78465L12.175 12.0325L6.751 15.928L7.111 22.6922L3.939 28.5202L7.241 34.4615L6.949 41.0681L10.534 43.5948L0 53.9756L10.724 58.0406L14.849 68.6087L27.054 56.5802L33.63 54.7413L39.984 56.46L52.254 68.5506L56.379 57.9825L67.104 53.9175L56.297 43.2686ZM13.045 55.7524L5.386 52.8502L12.781 45.5618L15.186 51.0862L21.958 52.2461L24.766 54.6556L15.993 63.301L13.045 55.7524ZM33.617 51.6706L27.763 53.3085L23.296 49.474L17.301 48.4472L14.966 43.0833L10.015 39.5948L10.273 33.7638L7.35 28.5034L10.15 23.3603L9.831 17.3717L14.618 13.9344L16.968 8.40302L22.794 7.3535L27.347 3.3752L33.059 4.91942L38.913 3.28158L43.379 7.11601L49.375 8.14286L51.711 13.5067L56.66 16.9952L56.402 22.8262L59.325 28.0866L56.525 33.2297L56.843 39.2184L52.057 42.6556L49.706 48.187L43.88 49.2356L39.327 53.2148L33.617 51.6706ZM54.059 55.6933L51.112 63.2429L42.305 54.5649L45.244 51.9958L51.846 50.8064L54.166 45.3489L61.717 52.7911L54.059 55.6933Z" fill="currentColor"/>
</svg>
