<svg width="67" height="64" viewBox="0 0 67 64" fill="none" xmlns="http://www.w3.org/2000/svg">
<path d="M28.9655 6.1722V0.716745C28.9655 0.454621 28.4914 0.241645 27.895 0.110583C27.2374 -0.0368611 26.4268 -0.0368611 25.7845 0.110583C25.1881 0.241645 24.714 0.454621 24.714 0.716745V6.1722C24.714 6.43432 25.1881 6.6473 25.7845 6.77836C26.1057 6.86027 26.4727 6.89304 26.8398 6.89304C27.4056 6.89304 28.9655 6.66368 28.9655 6.1722ZM11.5923 6.1722V0.716745C11.5923 0.454621 11.1182 0.241645 10.5218 0.110583C9.87948 -0.0368611 9.05364 -0.0368611 8.41132 0.110583C7.81488 0.241645 7.34079 0.454621 7.34079 0.716745V6.1722C7.34079 6.43432 7.81488 6.6473 8.41132 6.77836C8.73248 6.86027 9.09952 6.89304 9.46656 6.89304C10.0477 6.89304 11.5923 6.66368 11.5923 6.1722ZM46.3234 6.1722V0.716745C46.3234 0.454621 45.8493 0.241645 45.2529 0.110583C44.5953 -0.0368611 43.7848 -0.0368611 43.1424 0.110583C42.546 0.241645 42.0719 0.454621 42.0719 0.716745V6.1722C42.0719 6.43432 42.546 6.6473 43.1424 6.77836C43.4636 6.86027 43.8306 6.89304 44.1977 6.89304C44.7788 6.89304 46.3234 6.66368 46.3234 6.1722ZM0.0152934 12.8727H53.6642V6.82751C53.6642 5.63157 52.7466 4.63222 51.6149 4.63222H48.1586V6.15581C48.1586 8.15451 45.9105 8.84258 44.1977 8.84258C42.5154 8.84258 40.2367 8.15451 40.2367 6.15581V4.63222H30.7854V6.15581C30.7854 8.15451 28.5373 8.84258 26.8245 8.84258C25.1422 8.84258 22.8635 8.15451 22.8635 6.15581V4.63222H13.4122V6.15581C13.4122 8.15451 11.1641 8.84258 9.45127 8.84258C7.769 8.84258 5.4903 8.15451 5.4903 6.15581V4.63222H2.0493C0.932892 4.63222 0 5.61518 0 6.82751V12.8727H0.0152934ZM6.75964 21.8505C6.25496 21.8505 5.84204 21.4081 5.84204 20.8675C5.84204 20.3269 6.25496 19.8845 6.75964 19.8845H10.8583C11.3629 19.8845 11.7759 20.3269 11.7759 20.8675C11.7759 21.4081 11.3629 21.8505 10.8583 21.8505H6.75964ZM18.7802 21.8505C18.2755 21.8505 17.8626 21.4081 17.8626 20.8675C17.8626 20.3269 18.2755 19.8845 18.7802 19.8845H22.8788C23.3835 19.8845 23.7964 20.3269 23.7964 20.8675C23.7964 21.4081 23.3835 21.8505 22.8788 21.8505H18.7802ZM30.8007 21.8505C30.2961 21.8505 29.8831 21.4081 29.8831 20.8675C29.8831 20.3269 30.2961 19.8845 30.8007 19.8845H34.8993C35.404 19.8845 35.8169 20.3269 35.8169 20.8675C35.8169 21.4081 35.404 21.8505 34.8993 21.8505H30.8007ZM42.8213 21.8505C42.3166 21.8505 41.9037 21.4081 41.9037 20.8675C41.9037 20.3269 42.3166 19.8845 42.8213 19.8845H46.9199C47.4246 19.8845 47.8375 20.3269 47.8375 20.8675C47.8375 21.4081 47.4246 21.8505 46.9199 21.8505H42.8213ZM6.75964 33.2037C6.25496 33.2037 5.84204 32.7614 5.84204 32.2207C5.84204 31.6801 6.25496 31.2378 6.75964 31.2378H10.8583C11.3629 31.2378 11.7759 31.6801 11.7759 32.2207C11.7759 32.7614 11.3629 33.2037 10.8583 33.2037H6.75964ZM18.7802 33.2037C18.2755 33.2037 17.8626 32.7614 17.8626 32.2207C17.8626 31.6801 18.2755 31.2378 18.7802 31.2378H22.8788C23.3835 31.2378 23.7964 31.6801 23.7964 32.2207C23.7964 32.7614 23.3835 33.2037 22.8788 33.2037H18.7802ZM30.8007 33.2037C30.2961 33.2037 29.8831 32.7614 29.8831 32.2207C29.8831 31.6801 30.2961 31.2378 30.8007 31.2378H34.8993C35.404 31.2378 35.8169 31.6801 35.8169 32.2207C35.8169 32.7614 35.404 33.2037 34.8993 33.2037H30.8007ZM49.688 41.7391C45.4976 37.2503 38.6921 37.2503 34.5017 41.7391C30.3113 46.228 30.3113 53.5183 34.5017 58.0072C38.6921 62.496 45.4976 62.496 49.688 58.0072C53.8936 53.5183 53.8936 46.2444 49.688 41.7391ZM30.8925 55.9921C28.8891 51.7817 29.1032 46.7195 31.4431 42.7385L24.5611 41.6244C21.1507 41.6572 19.2084 41.6081 17.1132 41.5753C15.4462 41.5425 13.6722 41.5098 10.5677 41.5098C8.31956 41.5098 8.2278 44.1965 8.97717 44.4095L13.9781 44.2948C14.4828 44.2784 14.8957 44.7208 14.911 45.245C14.9263 45.7857 14.5134 46.228 14.024 46.2444C11.7759 46.2935 9.40539 46.3263 7.17256 46.441C5.84205 46.5393 5.68911 49.4882 6.82082 49.4718L12.5252 49.3407C13.0299 49.3243 13.4428 49.7667 13.4581 50.2909C13.4734 50.8315 13.0605 51.2739 12.5558 51.2903L6.8514 51.4213C6.14791 51.4377 5.90322 52.2732 5.90322 52.9285C5.90322 53.5675 6.14791 54.4357 6.83611 54.4357L12.5252 54.3047C13.0299 54.2883 13.4428 54.7306 13.4581 55.2549C13.4734 55.7955 13.0605 56.2378 12.5558 56.2542L6.8514 56.3853H6.83611C5.56677 56.3853 5.73499 59.2523 6.54554 59.2523L16.5015 59.2195C17.0062 59.2195 17.4191 59.6618 17.4191 60.2025C17.4191 60.7431 17.0062 61.1854 16.5015 61.1854H13.6416L15.2321 63.0694L23.0623 61.2018L29.0114 56.2215C29.1796 56.0576 29.3937 55.9593 29.6384 55.9593H30.8925V55.9921ZM52.1502 41.7883C55.27 46.228 55.5147 52.2896 52.7619 57.0078L67 57.7123V41.051L52.1502 41.7883ZM42.1025 36.4147C45.36 36.4147 48.3269 37.7417 50.5597 39.9206L53.6642 39.7732V14.8387H0.0152934V50.2581C0.0152934 51.4541 0.932892 52.4534 2.0646 52.4534H4.06802C4.14449 51.7162 4.40447 50.979 4.84798 50.422C3.51746 48.5216 4.35859 44.7863 6.8667 44.4914C6.23967 42.247 7.75371 39.5275 10.5677 39.5275C16.6238 39.5275 18.3214 39.7077 24.6375 39.6585C24.6834 39.6585 24.7293 39.6585 24.7752 39.6749L32.0548 40.8544L32.8195 40.8217C32.8806 40.7725 36.1075 36.4147 42.1025 36.4147ZM41.1849 43.2955C41.1849 42.7549 41.5978 42.3125 42.1025 42.3125C42.6072 42.3125 43.0201 42.7549 43.0201 43.2955V49.4718L46.1858 52.863C46.5375 53.2562 46.5375 53.8787 46.1858 54.2555C45.8188 54.6323 45.2376 54.6323 44.8859 54.2555L41.4602 50.5858C41.2919 50.4056 41.1849 50.1598 41.1849 49.8813V43.2955Z" fill="white"/>
</svg>
