<svg width="10" height="11" viewBox="0 0 10 11" fill="none" xmlns="http://www.w3.org/2000/svg">
<path d="M3.26363 4.49447C3.26363 5.66386 3.89579 6.4 4.9 6.4C5.9042 6.4 6.53636 5.66386 6.53636 4.49447C6.53636 3.2396 5.36329 1.54553 5.00352 1.05551C4.99072 1.0381 4.97483 1.02413 4.95695 1.01454C4.93907 1.00496 4.91962 1 4.89994 1C4.88026 1 4.86081 1.00496 4.84293 1.01454C4.82505 1.02413 4.80916 1.0381 4.79636 1.05551C4.4367 1.54553 3.26363 3.2396 3.26363 4.49447Z" stroke="#383084" stroke-width="0.5" stroke-miterlimit="10"/>
<path d="M9.39999 4.15001H8.9909C7.96818 4.15001 8.58181 7.07501 4.89999 7.52501" stroke="#383084" stroke-width="0.5" stroke-linecap="round"/>
<path d="M0.399994 4.15001H0.809085C1.83181 4.15001 1.21818 7.07501 4.89999 7.52501" stroke="#383084" stroke-width="0.5" stroke-linecap="round"/>
<path d="M9.39999 8.65001H7.96818H0.399994" stroke="#383084" stroke-width="0.5" stroke-linecap="round"/>
<path d="M9.39999 10H7.96818H0.399994" stroke="#383084" stroke-width="0.5" stroke-linecap="round"/>
</svg>
