<svg width="23" height="23" viewBox="0 0 23 23" fill="none" xmlns="http://www.w3.org/2000/svg">
<g clip-path="url(#clip0_5_190)">
<path fill-rule="evenodd" clip-rule="evenodd" d="M9.77236 1.41354C9.77236 0.733045 10.324 0.181396 11.0045 0.181396C12.5686 0.181396 14.1175 0.489475 15.5625 1.08805C17.0076 1.68661 18.3206 2.56394 19.4267 3.66996C20.5327 4.77597 21.41 6.089 22.0086 7.53408C22.6071 8.97915 22.9152 10.528 22.9152 12.0921C22.9152 12.7726 22.3636 13.3242 21.6831 13.3242C21.0026 13.3242 20.4509 12.7726 20.4509 12.0921C20.4509 10.8516 20.2066 9.62322 19.7319 8.47711C19.2571 7.33102 18.5613 6.28966 17.6841 5.41248C16.807 4.53529 15.7656 3.83947 14.6195 3.36475C13.4734 2.89002 12.245 2.64568 11.0045 2.64568C10.324 2.64568 9.77236 2.09404 9.77236 1.41354ZM11.5366 22.1121C12.3883 22.6605 13.402 22.9008 14.4092 22.7932C15.4164 22.6856 16.3564 22.2366 17.073 21.5207L17.6973 20.8964C17.9742 20.6164 18.1295 20.2386 18.1295 19.845C18.1295 19.4512 17.9742 19.0735 17.6973 18.7935L15.0687 16.1814C14.7916 15.9055 14.4165 15.7506 14.0255 15.7506C13.6345 15.7506 13.2594 15.9055 12.9823 16.1814C12.7024 16.4582 12.3246 16.6136 11.9309 16.6136C11.5372 16.6136 11.1593 16.4582 10.8795 16.1814L6.69017 11.9921C6.41322 11.7122 6.25797 11.3344 6.25797 10.9407C6.25797 10.5469 6.41322 10.1691 6.69017 9.88923C6.96606 9.61213 7.12095 9.23703 7.12095 8.84601C7.12095 8.455 6.96606 8.0799 6.69017 7.8028L4.16021 5.17423C3.88026 4.89733 3.50241 4.74203 3.10878 4.74203C2.71498 4.74203 2.33713 4.89733 2.05735 5.17423L1.43307 5.79851C0.704292 6.50501 0.239857 7.44006 0.1173 8.44762C-0.00525856 9.45519 0.221292 10.4743 0.759493 11.3349C3.62414 15.5879 7.28361 19.2475 11.5366 22.1121ZM10.4887 4.93334C9.80822 4.93334 9.25656 5.48499 9.25656 6.16548C9.25656 6.84597 9.80822 7.39762 10.4887 7.39762C11.9048 7.39762 13.2628 7.96015 14.2642 8.96146C15.2655 9.96278 15.828 11.3208 15.828 12.7369C15.828 13.4174 16.3796 13.9691 17.0601 13.9691C17.7406 13.9691 18.2923 13.4174 18.2923 12.7369C18.2923 10.6673 17.4701 8.6824 16.0067 7.21895C14.5432 5.75549 12.5583 4.93334 10.4887 4.93334Z" fill="white"/>
</g>
<defs>
<clipPath id="clip0_5_190">
<rect width="23" height="23" fill="white" transform="matrix(-1 0 0 1 23 0)"/>
</clipPath>
</defs>
</svg>
