<svg width="56" height="56" viewBox="0 0 56 56" fill="none" xmlns="http://www.w3.org/2000/svg">
<circle cx="28" cy="28" r="26.5" stroke="white" stroke-width="3"/>
<path d="M18.9 14.0633C21.4421 13.6457 23.8464 15.3381 24.2701 17.8433L27.381 36.2376C27.8047 38.7427 26.0874 41.1121 23.5453 41.5296C21.0031 41.9471 18.5989 40.2548 18.1752 37.7496L15.0642 19.3553C14.6405 16.8501 16.3579 14.4808 18.9 14.0633Z" fill="white"/>
<path d="M34.4548 14.0633C36.9969 13.6457 39.4012 15.3381 39.8248 17.8433L42.9358 36.2376C43.3595 38.7427 41.6422 41.1121 39.1 41.5296C36.5579 41.9471 34.1536 40.2548 33.7299 37.7496L30.619 19.3553C30.1953 16.8501 31.9126 14.4808 34.4548 14.0633Z" fill="white"/>
</svg>
